<svg width="24" height="24" viewBox="0 0 24 24" fill="none" xmlns="http://www.w3.org/2000/svg">
<path d="M3.83338 4H8.32338L9.77038 7.618L7.44538 9.168C7.30846 9.25935 7.19621 9.38308 7.11858 9.52822C7.04096 9.67335 7.00035 9.83541 7.00038 10C7.00338 10.094 7.00038 10.001 7.00038 10.001V10.022C7.00088 10.0667 7.00288 10.1114 7.00638 10.156C7.01171 10.2387 7.02338 10.3487 7.04138 10.486C7.08038 10.756 7.15538 11.128 7.30138 11.566C7.59538 12.446 8.17138 13.585 9.29338 14.707C10.4154 15.829 11.5544 16.405 12.4334 16.699C12.8724 16.845 13.2434 16.919 13.5154 16.959C13.6688 16.9813 13.8234 16.9947 13.9784 16.999L13.9914 17H13.9994C13.9994 17 14.1114 16.994 14.0004 17C14.186 16.9999 14.368 16.9481 14.5259 16.8504C14.6838 16.7528 14.8114 16.6131 14.8944 16.447L15.5644 15.107L20.0004 15.847V20.167C17.8894 20.472 12.1874 20.773 7.70738 16.293C3.22738 11.813 3.52738 6.11 3.83338 4ZM9.07338 10.486L10.8804 9.282C11.2621 9.02737 11.5447 8.64922 11.6807 8.21096C11.8167 7.77271 11.7979 7.30102 11.6274 6.875L10.1804 3.257C10.0319 2.88591 9.77562 2.56781 9.44462 2.34376C9.11362 2.11971 8.72308 1.99997 8.32338 2H3.78138C2.87238 2 2.01738 2.631 1.86838 3.617C1.52838 5.859 1.06738 12.481 6.29338 17.707C11.5194 22.933 18.1414 22.471 20.3834 22.132C21.3694 21.982 22.0004 21.128 22.0004 20.219V15.847C22.0004 15.3736 21.8325 14.9155 21.5266 14.5542C21.2206 14.1929 20.7964 13.9519 20.3294 13.874L15.8934 13.135C15.4715 13.0646 15.0381 13.1313 14.6569 13.3253C14.2757 13.5193 13.9667 13.8304 13.7754 14.213L13.4294 14.906C13.3071 14.8756 13.186 14.8406 13.0664 14.801C12.4464 14.595 11.5854 14.171 10.7074 13.293C9.82938 12.415 9.40538 11.554 9.19938 10.933C9.15081 10.786 9.1091 10.6369 9.07438 10.486H9.07338Z" fill="white"/>
</svg>
