<svg width="24" height="24" viewBox="0 0 24 24" fill="none" xmlns="http://www.w3.org/2000/svg">
<path d="M3 0.5H21M3 23.5H21M5.5 23.5V17.5L8.356 15.786C9.00983 15.3938 9.55095 14.8389 9.92663 14.1754C10.3023 13.5119 10.4998 12.7625 10.4998 12C10.4998 11.2375 10.3023 10.4881 9.92663 9.82459C9.55095 9.16111 9.00983 8.60623 8.356 8.214L5.5 6.5V0.5M18.5 0.5V6.5L15.644 8.214C14.9904 8.60642 14.4495 9.16137 14.074 9.82482C13.6985 10.4883 13.5012 11.2376 13.5012 12C13.5012 12.7624 13.6985 13.5117 14.074 14.1752C14.4495 14.8386 14.9904 15.3936 15.644 15.786L18.5 17.5V23.5" stroke="black"/>
</svg>
